:SAMPLES-PER-SECOND 30
:FRAME-RANGE 1-3549
:FULLY-SPECIFIED
:DEGREES
2884
root  35.1894 38.8347 39.3641 -168.029 -29.8811 178.646
RightUpLeg  -29.1507 -2.78965 -3.3974
RightLeg  23.9752 -6.2351 -3.24609
RightFoot  -5.76254 -0.290199 5.1467
RightToes  -1.11029e-010 1.2921e-014 -6.02303e-014
Spine  18.7742 0.160451 2.52035
Spine1  2.87268 1.42615 -4.43434
HEad  -35.7056 0.76639 -1.72169
LeftShoulder1  2.84095 -5.05608 -27.0987
LeftArm  -17.5768 -55.4402 -50.9591
LeftForeArm  -32.9921 -19.5518 -8.00098
LeftHand  -0.293121 6.87163 -17.9958
RightShoulder  18.7873 34.6226 42.3936
RightArm  -30.9324 30.6653 15.5491
RightForeArm  -49.9312 19.0953 8.32848
RightHand  1.21942 0.297305 24.5868
LeftUpLeg  -29.7101 5.24756 2.8744
LeftLeg  17.323 -6.33242 -1.9205
LeftFoot  0.643318 0.699351 -6.69602
LeftToes  -1.9349e-011 -1.19469e-011 -2.02219e-012
2885
root  35.109 38.8673 39.2691 -169.117 -29.8173 178.485
RightUpLeg  -27.7814 -2.8271 -3.61788
RightLeg  24.1843 -6.19887 -3.25703
RightFoot  -6.00107 -0.280457 5.13359
RightToes  -1.11029e-010 1.2921e-014 -6.02303e-014
Spine  18.1818 0.253255 2.57791
Spine1  2.92875 1.48023 -4.21986
HEad  -32.4887 0.357354 -2.05927
LeftShoulder1  2.72583 -5.00801 -25.8903
LeftArm  -13.9638 -57.1871 -53.9096
LeftForeArm  -35.0511 -23.1221 -6.71439
LeftHand  -0.257279 6.63247 -18.291
RightShoulder  18.6322 35.4003 41.0593
RightArm  -30.0392 32.4997 15.3395
RightForeArm  -52.9653 24.0564 7.24208
RightHand  1.19688 0.16363 24.7326
LeftUpLeg  -28.27 5.26483 2.77615
LeftLeg  17.4499 -6.31845 -1.92365
LeftFoot  0.331872 0.683351 -6.70114
LeftToes  -1.9349e-011 -1.19469e-011 -2.02219e-012
2886
root  34.9878 38.9005 39.093 -170.854 -29.8716 178.376
RightUpLeg  -25.5884 -2.5061 -3.89704
RightLeg  24.514 -6.43064 -3.41658
RightFoot  -6.55183 -0.266855 5.31021
RightToes  -1.11029e-010 1.2921e-014 -6.02303e-014
Spine  17.543 0.415037 2.69255
Spine1  2.83902 1.56725 -3.87692
HEad  -29.4786 -0.211458 -2.35624
LeftShoulder1  2.67396 -5.04575 -25.1103
LeftArm  -13.243 -58.5136 -56.5638
LeftForeArm  -35.3726 -25.3155 -6.96195
LeftHand  -0.275634 6.66148 -19.3626
RightShoulder  18.7554 36.4486 40.1121
RightArm  -33.9335 33.3142 15.0355
RightForeArm  -51.9813 27.9558 8.05747
RightHand  1.13565 -0.251097 25.4221
LeftUpLeg  -26.1501 5.11065 2.84998
LeftLeg  17.8683 -6.36771 -1.97385
LeftFoot  -0.249127 0.634979 -6.5209
LeftToes  -1.9349e-011 -1.19469e-011 -2.02219e-012
2887
root  34.8363 38.9491 38.8672 -172.778 -29.7286 178.22
RightUpLeg  -23.0079 -2.28537 -4.18969
RightLeg  24.6531 -6.35301 -3.39792
RightFoot  -7.16645 -0.246165 5.41127
RightToes  -1.11029e-010 1.2921e-014 -6.02303e-014
Spine  16.7496 0.586598 2.84854
Spine1  2.49182 1.76438 -3.93187
HEad  -26.7351 -0.780106 -2.6446
LeftShoulder1  2.65701 -5.14758 -24.5204
LeftArm  -13.1991 -59.1698 -59.1024
LeftForeArm  -35.9864 -26.5445 -7.27906
LeftHand  -0.285699 6.6138 -20.8799
RightShoulder  18.8081 36.9649 39.6409
RightArm  -36.593 34.3724 15.3694
RightForeArm  -51.8121 30.6425 8.76231
RightHand  1.19572 -0.105469 25.9772
LeftUpLeg  -23.6031 5.24351 2.84852
LeftLeg  18.1624 -6.4279 -2.02765
LeftFoot  -0.88557 0.584229 -6.32431
LeftToes  -1.9349e-011 -1.19469e-011 -2.02219e-012
